<svg xmlns="http://www.w3.org/2000/svg" version="1.1" xmlns:xlink="http://www.w3.org/1999/xlink" xmlns:svgjs="http://svgjs.com/svgjs" width="100%" height="100%"><svg width="100%" height="100%" viewBox="0 0 512 512" version="1.1" xmlns="http://www.w3.org/2000/svg" xmlns:xlink="http://www.w3.org/1999/xlink" xml:space="preserve" xmlns:serif="http://www.serif.com/" style="fill-rule:evenodd;clip-rule:evenodd;stroke-linejoin:round;stroke-miterlimit:2;">
    <g transform="matrix(1,0,0,1,6,72)">
        <g transform="matrix(0.743307,0,0,1,15.2101,0)">
            <path d="M344,48.001L219.312,48.001L189.656,18.345C186.528,15.217 181.472,15.217 178.344,18.345L148.688,48.001L24,48.001C10.768,48.001 0,58.769 0,72.001L0,96.001C0,100.417 3.576,104.001 8,104.001C12.424,104.001 16,100.417 16,96.001L16,72.001C16,67.593 19.584,64.001 24,64.001L152,64.001C154.128,64.001 156.16,63.161 157.656,61.657L184,35.313L210.344,61.657C211.84,63.161 213.872,64.001 216,64.001L344,64.001C348.416,64.001 352,67.593 352,72.001L352,96.001C352,100.417 355.576,104.001 360,104.001C364.424,104.001 368,100.417 368,96.001L368,72.001C368,58.769 357.232,48.001 344,48.001Z" style="fill:rgb(0,122,255);fill-rule:nonzero;"></path>
        </g>
        <g transform="matrix(0.743307,0,0,1,14.8099,-3.20213)">
            <path d="M360,264.001C355.576,264.001 352,267.585 352,272.001L352,296.001C352,300.409 348.416,304.001 344,304.001L216,304.001C213.872,304.001 211.84,304.841 210.344,306.345L184,332.689L157.656,306.345C156.16,304.841 154.128,304.001 152,304.001L24,304.001C19.584,304.001 16,300.409 16,296.001L16,272.001C16,267.585 12.424,264.001 8,264.001C3.576,264.001 0,267.585 0,272.001L0,296.001C0,309.233 10.768,320.001 24,320.001L148.688,320.001L178.344,349.657C179.904,351.217 181.952,352.001 184,352.001C186.048,352.001 188.096,351.217 189.656,349.657L219.312,320.001L344,320.001C357.232,320.001 368,309.233 368,296.001L368,272.001C368,267.585 364.424,264.001 360,264.001Z" style="fill:rgb(0,122,255);fill-rule:nonzero;"></path>
        </g>
        <g transform="matrix(5.9863,0,0,5.9863,-2406.45,-902.631)">
            <text x="405.871px" y="191.164px" style="font-family:'ArialRoundedMTBold', 'Arial Rounded MT Bold', sans-serif;font-size:26.059px;fill:rgb(0,122,255);" svgjs:data="{&quot;leading&quot;:&quot;1.3&quot;}">APITY</text>
        </g>
    </g>
</svg><style>@media (prefers-color-scheme: light) { :root { filter: none; } }
</style></svg>
